<?xml version="1.0" encoding="utf-8"?>
<!-- Generator: Adobe Illustrator 22.0.1, SVG Export Plug-In . SVG Version: 6.00 Build 0)  -->
<svg version="1.1" id="图层_1" xmlns="http://www.w3.org/2000/svg" xmlns:xlink="http://www.w3.org/1999/xlink" x="0px" y="0px"
	 viewBox="0 0 512 512" style="enable-background:new 0 0 512 512;" xml:space="preserve">
<path d="M384.3,479h-60.2c-19.5,0-35.4-16.1-35.4-35.9V319.6c0-5.7-4.4-10.4-9.9-10.4h-45.7c-5.4,0-9.9,4.6-9.9,10.4V443
	c0,19.8-15.9,35.9-35.4,35.9h-59.3c-19.5,0-35.4-16.1-35.4-35.9V287.3c0-4.8-3.8-8.8-8.4-8.8H67.4c-13.9,0-25.9-8.1-31.3-21.1
	c-5.4-13-2.4-27.9,7.5-37.8L215.2,48.1l9.1,9.1l-9.1-9.1C226.3,37,241,30.9,256.5,30.9s30.2,6.1,41.3,17.1l171.7,171.6
	c10,9.9,12.9,24.8,7.5,37.8c-5.4,13-17.4,21.1-31.3,21.1h-17.5c-4.6,0-8.4,3.9-8.4,8.8v155.7C419.8,462.8,403.9,479,384.3,479z
	 M233.2,283.8h45.7c19.5,0,35.4,16.1,35.4,35.9v123.4c0,5.7,4.4,10.4,9.9,10.4h60.2c5.4,0,9.9-4.6,9.9-10.4V287.3
	c0-19,15.2-34.4,33.9-34.4h17.5c5,0,7-3.7,7.7-5.3c0.5-1.3,2-6-1.9-10L279.7,66.2c-13-13-33.4-13-46.4,0L61.6,237.7
	c-3.9,3.9-2.4,8.6-1.9,10c0.6,1.6,2.7,5.3,7.7,5.3h17.5c18.7,0,33.9,15.4,33.9,34.4V443c0,5.7,4.4,10.4,9.9,10.4h59.2
	c5.4,0,9.9-4.6,9.9-10.4V319.6C197.7,299.8,213.6,283.8,233.2,283.8L233.2,283.8z"/>
</svg>
